<?xml version="1.0" encoding="utf-8" standalone="no"?>
<!DOCTYPE svg PUBLIC "-//W3C//DTD SVG 1.1//EN"
  "http://www.w3.org/Graphics/SVG/1.1/DTD/svg11.dtd">
<svg xmlns:xlink="http://www.w3.org/1999/xlink" width="856.558125pt" height="439.090218pt" viewBox="0 0 856.558125 439.090218" xmlns="http://www.w3.org/2000/svg" version="1.1">
 <metadata>
  <rdf:RDF xmlns:dc="http://purl.org/dc/elements/1.1/" xmlns:cc="http://creativecommons.org/ns#" xmlns:rdf="http://www.w3.org/1999/02/22-rdf-syntax-ns#">
   <cc:Work>
    <dc:type rdf:resource="http://purl.org/dc/dcmitype/StillImage"/>
    <dc:date>2025-05-04T12:24:42.079828</dc:date>
    <dc:format>image/svg+xml</dc:format>
    <dc:creator>
     <cc:Agent>
      <dc:title>Matplotlib v3.10.1, https://matplotlib.org/</dc:title>
     </cc:Agent>
    </dc:creator>
   </cc:Work>
  </rdf:RDF>
 </metadata>
 <defs>
  <style type="text/css">*{stroke-linejoin: round; stroke-linecap: butt}</style>
 </defs>
 <g id="figure_1">
  <g id="patch_1">
   <path d="M 0 439.090218 
L 856.558125 439.090218 
L 856.558125 0 
L 0 0 
z
" style="fill: #ffffff"/>
  </g>
  <g id="axes_1">
   <g id="patch_2">
    <path d="M 53.328125 344.434697 
L 849.358125 344.434697 
L 849.358125 22.318125 
L 53.328125 22.318125 
z
" style="fill: #ffffff"/>
   </g>
   <g id="patch_3">
    <path d="M 89.511307 344.434697 
L 148.585889 344.434697 
L 148.585889 335.527623 
L 89.511307 335.527623 
z
" clip-path="url(#pcbcd9a0ac7)" style="fill: #bc8f8f"/>
   </g>
   <g id="patch_4">
    <path d="M 163.354535 344.434697 
L 222.429118 344.434697 
L 222.429118 325.071493 
L 163.354535 325.071493 
z
" clip-path="url(#pcbcd9a0ac7)" style="fill: #bc8f8f"/>
   </g>
   <g id="patch_5">
    <path d="M 237.197763 344.434697 
L 296.272346 344.434697 
L 296.272346 320.101604 
L 237.197763 320.101604 
z
" clip-path="url(#pcbcd9a0ac7)" style="fill: #bc8f8f"/>
   </g>
   <g id="patch_6">
    <path d="M 311.040991 344.434697 
L 370.115574 344.434697 
L 370.115574 315.260803 
L 311.040991 315.260803 
z
" clip-path="url(#pcbcd9a0ac7)" style="fill: #bc8f8f"/>
   </g>
   <g id="patch_7">
    <path d="M 384.88422 344.434697 
L 443.958802 344.434697 
L 443.958802 294.800352 
L 384.88422 294.800352 
z
" clip-path="url(#pcbcd9a0ac7)" style="fill: #bc8f8f"/>
   </g>
   <g id="patch_8">
    <path d="M 458.727448 344.434697 
L 517.80203 344.434697 
L 517.80203 288.862303 
L 458.727448 288.862303 
z
" clip-path="url(#pcbcd9a0ac7)" style="fill: #bc8f8f"/>
   </g>
   <g id="patch_9">
    <path d="M 532.570676 344.434697 
L 591.645259 344.434697 
L 591.645259 277.24438 
L 532.570676 277.24438 
z
" clip-path="url(#pcbcd9a0ac7)" style="fill: #bc8f8f"/>
   </g>
   <g id="patch_10">
    <path d="M 606.413904 344.434697 
L 665.488487 344.434697 
L 665.488487 280.277949 
L 606.413904 280.277949 
z
" clip-path="url(#pcbcd9a0ac7)" style="fill: #bc8f8f"/>
   </g>
   <g id="patch_11">
    <path d="M 680.257132 344.434697 
L 739.331715 344.434697 
L 739.331715 285.957822 
L 680.257132 285.957822 
z
" clip-path="url(#pcbcd9a0ac7)" style="fill: #bc8f8f"/>
   </g>
   <g id="patch_12">
    <path d="M 754.100361 344.434697 
L 813.174943 344.434697 
L 813.174943 257.235737 
L 754.100361 257.235737 
z
" clip-path="url(#pcbcd9a0ac7)" style="fill: #bc8f8f"/>
   </g>
   <g id="patch_13">
    <path d="M 89.511307 335.527623 
L 148.585889 335.527623 
L 148.585889 313.905379 
L 89.511307 313.905379 
z
" clip-path="url(#pcbcd9a0ac7)" style="fill: #f08080"/>
   </g>
   <g id="patch_14">
    <path d="M 163.354535 325.071493 
L 222.429118 325.071493 
L 222.429118 294.92944 
L 163.354535 294.92944 
z
" clip-path="url(#pcbcd9a0ac7)" style="fill: #f08080"/>
   </g>
   <g id="patch_15">
    <path d="M 237.197763 320.101604 
L 296.272346 320.101604 
L 296.272346 270.467259 
L 237.197763 270.467259 
z
" clip-path="url(#pcbcd9a0ac7)" style="fill: #f08080"/>
   </g>
   <g id="patch_16">
    <path d="M 311.040991 315.260803 
L 370.115574 315.260803 
L 370.115574 285.635102 
L 311.040991 285.635102 
z
" clip-path="url(#pcbcd9a0ac7)" style="fill: #f08080"/>
   </g>
   <g id="patch_17">
    <path d="M 384.88422 294.800352 
L 443.958802 294.800352 
L 443.958802 236.968917 
L 384.88422 236.968917 
z
" clip-path="url(#pcbcd9a0ac7)" style="fill: #f08080"/>
   </g>
   <g id="patch_18">
    <path d="M 458.727448 288.862303 
L 517.80203 288.862303 
L 517.80203 184.365548 
L 458.727448 184.365548 
z
" clip-path="url(#pcbcd9a0ac7)" style="fill: #f08080"/>
   </g>
   <g id="patch_19">
    <path d="M 532.570676 277.24438 
L 591.645259 277.24438 
L 591.645259 169.326793 
L 532.570676 169.326793 
z
" clip-path="url(#pcbcd9a0ac7)" style="fill: #f08080"/>
   </g>
   <g id="patch_20">
    <path d="M 606.413904 280.277949 
L 665.488487 280.277949 
L 665.488487 155.191654 
L 606.413904 155.191654 
z
" clip-path="url(#pcbcd9a0ac7)" style="fill: #f08080"/>
   </g>
   <g id="patch_21">
    <path d="M 680.257132 285.957822 
L 739.331715 285.957822 
L 739.331715 182.881035 
L 680.257132 182.881035 
z
" clip-path="url(#pcbcd9a0ac7)" style="fill: #f08080"/>
   </g>
   <g id="patch_22">
    <path d="M 754.100361 257.235737 
L 813.174943 257.235737 
L 813.174943 154.610758 
L 754.100361 154.610758 
z
" clip-path="url(#pcbcd9a0ac7)" style="fill: #f08080"/>
   </g>
   <g id="patch_23">
    <path d="M 89.511307 313.905379 
L 148.585889 313.905379 
L 148.585889 297.898464 
L 89.511307 297.898464 
z
" clip-path="url(#pcbcd9a0ac7)" style="fill: #cd5c5c"/>
   </g>
   <g id="patch_24">
    <path d="M 163.354535 294.92944 
L 222.429118 294.92944 
L 222.429118 282.020637 
L 163.354535 282.020637 
z
" clip-path="url(#pcbcd9a0ac7)" style="fill: #cd5c5c"/>
   </g>
   <g id="patch_25">
    <path d="M 237.197763 270.467259 
L 296.272346 270.467259 
L 296.272346 262.27017 
L 237.197763 262.27017 
z
" clip-path="url(#pcbcd9a0ac7)" style="fill: #cd5c5c"/>
   </g>
   <g id="patch_26">
    <path d="M 311.040991 285.635102 
L 370.115574 285.635102 
L 370.115574 257.429369 
L 311.040991 257.429369 
z
" clip-path="url(#pcbcd9a0ac7)" style="fill: #cd5c5c"/>
   </g>
   <g id="patch_27">
    <path d="M 384.88422 236.968917 
L 443.958802 236.968917 
L 443.958802 200.049743 
L 384.88422 200.049743 
z
" clip-path="url(#pcbcd9a0ac7)" style="fill: #cd5c5c"/>
   </g>
   <g id="patch_28">
    <path d="M 458.727448 184.365548 
L 517.80203 184.365548 
L 517.80203 163.259656 
L 458.727448 163.259656 
z
" clip-path="url(#pcbcd9a0ac7)" style="fill: #cd5c5c"/>
   </g>
   <g id="patch_29">
    <path d="M 532.570676 169.326793 
L 591.645259 169.326793 
L 591.645259 147.704549 
L 532.570676 147.704549 
z
" clip-path="url(#pcbcd9a0ac7)" style="fill: #cd5c5c"/>
   </g>
   <g id="patch_30">
    <path d="M 606.413904 155.191654 
L 665.488487 155.191654 
L 665.488487 136.667523 
L 606.413904 136.667523 
z
" clip-path="url(#pcbcd9a0ac7)" style="fill: #cd5c5c"/>
   </g>
   <g id="patch_31">
    <path d="M 680.257132 182.881035 
L 739.331715 182.881035 
L 739.331715 154.80439 
L 680.257132 154.80439 
z
" clip-path="url(#pcbcd9a0ac7)" style="fill: #cd5c5c"/>
   </g>
   <g id="patch_32">
    <path d="M 754.100361 154.610758 
L 813.174943 154.610758 
L 813.174943 67.153623 
L 754.100361 67.153623 
z
" clip-path="url(#pcbcd9a0ac7)" style="fill: #cd5c5c"/>
   </g>
   <g id="patch_33">
    <path d="M 89.511307 297.898464 
L 148.585889 297.898464 
L 148.585889 294.025823 
L 89.511307 294.025823 
z
" clip-path="url(#pcbcd9a0ac7)" style="fill: #a52a2a"/>
   </g>
   <g id="patch_34">
    <path d="M 163.354535 282.020637 
L 222.429118 282.020637 
L 222.429118 269.370011 
L 163.354535 269.370011 
z
" clip-path="url(#pcbcd9a0ac7)" style="fill: #a52a2a"/>
   </g>
   <g id="patch_35">
    <path d="M 237.197763 262.27017 
L 296.272346 262.27017 
L 296.272346 250.974968 
L 237.197763 250.974968 
z
" clip-path="url(#pcbcd9a0ac7)" style="fill: #a52a2a"/>
   </g>
   <g id="patch_36">
    <path d="M 311.040991 257.429369 
L 370.115574 257.429369 
L 370.115574 250.394072 
L 311.040991 250.394072 
z
" clip-path="url(#pcbcd9a0ac7)" style="fill: #a52a2a"/>
   </g>
   <g id="patch_37">
    <path d="M 384.88422 200.049743 
L 443.958802 200.049743 
L 443.958802 188.044556 
L 384.88422 188.044556 
z
" clip-path="url(#pcbcd9a0ac7)" style="fill: #a52a2a"/>
   </g>
   <g id="patch_38">
    <path d="M 458.727448 163.259656 
L 517.80203 163.259656 
L 517.80203 131.439458 
L 458.727448 131.439458 
z
" clip-path="url(#pcbcd9a0ac7)" style="fill: #a52a2a"/>
   </g>
   <g id="patch_39">
    <path d="M 532.570676 147.704549 
L 591.645259 147.704549 
L 591.645259 124.791425 
L 532.570676 124.791425 
z
" clip-path="url(#pcbcd9a0ac7)" style="fill: #a52a2a"/>
   </g>
   <g id="patch_40">
    <path d="M 606.413904 136.667523 
L 665.488487 136.667523 
L 665.488487 115.432543 
L 606.413904 115.432543 
z
" clip-path="url(#pcbcd9a0ac7)" style="fill: #a52a2a"/>
   </g>
   <g id="patch_41">
    <path d="M 680.257132 154.80439 
L 739.331715 154.80439 
L 739.331715 117.239776 
L 680.257132 117.239776 
z
" clip-path="url(#pcbcd9a0ac7)" style="fill: #a52a2a"/>
   </g>
   <g id="patch_42">
    <path d="M 754.100361 67.153623 
L 813.174943 67.153623 
L 813.174943 47.725875 
L 754.100361 47.725875 
z
" clip-path="url(#pcbcd9a0ac7)" style="fill: #a52a2a"/>
   </g>
   <g id="patch_43">
    <path d="M 89.511307 294.025823 
L 148.585889 294.025823 
L 148.585889 293.186751 
L 89.511307 293.186751 
z
" clip-path="url(#pcbcd9a0ac7)" style="fill: #ff4500"/>
   </g>
   <g id="patch_44">
    <path d="M 163.354535 269.370011 
L 222.429118 269.370011 
L 222.429118 268.079131 
L 163.354535 268.079131 
z
" clip-path="url(#pcbcd9a0ac7)" style="fill: #ff4500"/>
   </g>
   <g id="patch_45">
    <path d="M 237.197763 250.974968 
L 296.272346 250.974968 
L 296.272346 250.781336 
L 237.197763 250.781336 
z
" clip-path="url(#pcbcd9a0ac7)" style="fill: #ff4500"/>
   </g>
   <g id="patch_46">
    <path d="M 311.040991 250.394072 
L 370.115574 250.394072 
L 370.115574 248.522295 
L 311.040991 248.522295 
z
" clip-path="url(#pcbcd9a0ac7)" style="fill: #ff4500"/>
   </g>
   <g id="patch_47">
    <path d="M 384.88422 188.044556 
L 443.958802 188.044556 
L 443.958802 185.140076 
L 384.88422 185.140076 
z
" clip-path="url(#pcbcd9a0ac7)" style="fill: #ff4500"/>
   </g>
   <g id="patch_48">
    <path d="M 458.727448 131.439458 
L 517.80203 131.439458 
L 517.80203 130.66493 
L 458.727448 130.66493 
z
" clip-path="url(#pcbcd9a0ac7)" style="fill: #ff4500"/>
   </g>
   <g id="patch_49">
    <path d="M 532.570676 124.791425 
L 591.645259 124.791425 
L 591.645259 123.823265 
L 532.570676 123.823265 
z
" clip-path="url(#pcbcd9a0ac7)" style="fill: #ff4500"/>
   </g>
   <g id="patch_50">
    <path d="M 606.413904 115.432543 
L 665.488487 115.432543 
L 665.488487 115.109823 
L 606.413904 115.109823 
z
" clip-path="url(#pcbcd9a0ac7)" style="fill: #ff4500"/>
   </g>
   <g id="patch_51">
    <path d="M 680.257132 117.239776 
L 739.331715 117.239776 
L 739.331715 115.045279 
L 680.257132 115.045279 
z
" clip-path="url(#pcbcd9a0ac7)" style="fill: #ff4500"/>
   </g>
   <g id="patch_52">
    <path d="M 754.100361 47.725875 
L 813.174943 47.725875 
L 813.174943 43.982322 
L 754.100361 43.982322 
z
" clip-path="url(#pcbcd9a0ac7)" style="fill: #ff4500"/>
   </g>
   <g id="patch_53">
    <path d="M 89.511307 293.186751 
L 148.585889 293.186751 
L 148.585889 291.250431 
L 89.511307 291.250431 
z
" clip-path="url(#pcbcd9a0ac7)" style="fill: #800000"/>
   </g>
   <g id="patch_54">
    <path d="M 163.354535 268.079131 
L 222.429118 268.079131 
L 222.429118 267.369147 
L 163.354535 267.369147 
z
" clip-path="url(#pcbcd9a0ac7)" style="fill: #800000"/>
   </g>
   <g id="patch_55">
    <path d="M 237.197763 250.781336 
L 296.272346 250.781336 
L 296.272346 250.264984 
L 237.197763 250.264984 
z
" clip-path="url(#pcbcd9a0ac7)" style="fill: #800000"/>
   </g>
   <g id="patch_56">
    <path d="M 311.040991 248.522295 
L 370.115574 248.522295 
L 370.115574 245.875991 
L 311.040991 245.875991 
z
" clip-path="url(#pcbcd9a0ac7)" style="fill: #800000"/>
   </g>
   <g id="patch_57">
    <path d="M 384.88422 185.140076 
L 443.958802 185.140076 
L 443.958802 180.815627 
L 384.88422 180.815627 
z
" clip-path="url(#pcbcd9a0ac7)" style="fill: #800000"/>
   </g>
   <g id="patch_58">
    <path d="M 458.727448 130.66493 
L 517.80203 130.66493 
L 517.80203 129.567682 
L 458.727448 129.567682 
z
" clip-path="url(#pcbcd9a0ac7)" style="fill: #800000"/>
   </g>
   <g id="patch_59">
    <path d="M 532.570676 123.823265 
L 591.645259 123.823265 
L 591.645259 122.596929 
L 532.570676 122.596929 
z
" clip-path="url(#pcbcd9a0ac7)" style="fill: #800000"/>
   </g>
   <g id="patch_60">
    <path d="M 606.413904 115.109823 
L 665.488487 115.109823 
L 665.488487 114.206207 
L 606.413904 114.206207 
z
" clip-path="url(#pcbcd9a0ac7)" style="fill: #800000"/>
   </g>
   <g id="patch_61">
    <path d="M 680.257132 115.045279 
L 739.331715 115.045279 
L 739.331715 112.915327 
L 680.257132 112.915327 
z
" clip-path="url(#pcbcd9a0ac7)" style="fill: #800000"/>
   </g>
   <g id="patch_62">
    <path d="M 754.100361 43.982322 
L 813.174943 43.982322 
L 813.174943 39.076978 
L 754.100361 39.076978 
z
" clip-path="url(#pcbcd9a0ac7)" style="fill: #800000"/>
   </g>
   <g id="patch_63">
    <path d="M 89.511307 291.250431 
L 148.585889 291.250431 
L 148.585889 290.927711 
L 89.511307 290.927711 
z
" clip-path="url(#pcbcd9a0ac7)" style="fill: #ff0000"/>
   </g>
   <g id="patch_64">
    <path d="M 163.354535 267.369147 
L 222.429118 267.369147 
L 222.429118 267.369147 
L 163.354535 267.369147 
z
" clip-path="url(#pcbcd9a0ac7)" style="fill: #ff0000"/>
   </g>
   <g id="patch_65">
    <path d="M 237.197763 250.264984 
L 296.272346 250.264984 
L 296.272346 250.264984 
L 237.197763 250.264984 
z
" clip-path="url(#pcbcd9a0ac7)" style="fill: #ff0000"/>
   </g>
   <g id="patch_66">
    <path d="M 311.040991 245.875991 
L 370.115574 245.875991 
L 370.115574 245.746903 
L 311.040991 245.746903 
z
" clip-path="url(#pcbcd9a0ac7)" style="fill: #ff0000"/>
   </g>
   <g id="patch_67">
    <path d="M 384.88422 180.815627 
L 443.958802 180.815627 
L 443.958802 180.492907 
L 384.88422 180.492907 
z
" clip-path="url(#pcbcd9a0ac7)" style="fill: #ff0000"/>
   </g>
   <g id="patch_68">
    <path d="M 458.727448 129.567682 
L 517.80203 129.567682 
L 517.80203 129.567682 
L 458.727448 129.567682 
z
" clip-path="url(#pcbcd9a0ac7)" style="fill: #ff0000"/>
   </g>
   <g id="patch_69">
    <path d="M 532.570676 122.596929 
L 591.645259 122.596929 
L 591.645259 122.596929 
L 532.570676 122.596929 
z
" clip-path="url(#pcbcd9a0ac7)" style="fill: #ff0000"/>
   </g>
   <g id="patch_70">
    <path d="M 606.413904 114.206207 
L 665.488487 114.206207 
L 665.488487 114.206207 
L 606.413904 114.206207 
z
" clip-path="url(#pcbcd9a0ac7)" style="fill: #ff0000"/>
   </g>
   <g id="patch_71">
    <path d="M 680.257132 112.915327 
L 739.331715 112.915327 
L 739.331715 112.915327 
L 680.257132 112.915327 
z
" clip-path="url(#pcbcd9a0ac7)" style="fill: #ff0000"/>
   </g>
   <g id="patch_72">
    <path d="M 754.100361 39.076978 
L 813.174943 39.076978 
L 813.174943 37.657009 
L 754.100361 37.657009 
z
" clip-path="url(#pcbcd9a0ac7)" style="fill: #ff0000"/>
   </g>
   <g id="matplotlib.axis_1">
    <g id="xtick_1">
     <g id="line2d_1">
      <path d="M 119.048598 344.434697 
L 119.048598 22.318125 
" clip-path="url(#pcbcd9a0ac7)" style="fill: none; stroke: #b0b0b0; stroke-width: 0.8; stroke-linecap: square"/>
     </g>
     <g id="line2d_2">
      <defs>
       <path id="m109019a606" d="M 0 0 
L 0 3.5 
" style="stroke: #000000; stroke-width: 0.8"/>
      </defs>
      <g>
       <use xlink:href="#m109019a606" x="119.048598" y="344.434697" style="stroke: #000000; stroke-width: 0.8"/>
      </g>
     </g>
     <g id="text_1">
      <!-- Neck -->
      <g transform="translate(99.954505 374.431135) rotate(-45) scale(0.1 -0.1)">
       <defs>
        <path id="DejaVuSans-4e" d="M 628 4666 
L 1478 4666 
L 3547 763 
L 3547 4666 
L 4159 4666 
L 4159 0 
L 3309 0 
L 1241 3903 
L 1241 0 
L 628 0 
L 628 4666 
z
" transform="scale(0.015625)"/>
        <path id="DejaVuSans-65" d="M 3597 1894 
L 3597 1613 
L 953 1613 
Q 991 1019 1311 708 
Q 1631 397 2203 397 
Q 2534 397 2845 478 
Q 3156 559 3463 722 
L 3463 178 
Q 3153 47 2828 -22 
Q 2503 -91 2169 -91 
Q 1331 -91 842 396 
Q 353 884 353 1716 
Q 353 2575 817 3079 
Q 1281 3584 2069 3584 
Q 2775 3584 3186 3129 
Q 3597 2675 3597 1894 
z
M 3022 2063 
Q 3016 2534 2758 2815 
Q 2500 3097 2075 3097 
Q 1594 3097 1305 2825 
Q 1016 2553 972 2059 
L 3022 2063 
z
" transform="scale(0.015625)"/>
        <path id="DejaVuSans-63" d="M 3122 3366 
L 3122 2828 
Q 2878 2963 2633 3030 
Q 2388 3097 2138 3097 
Q 1578 3097 1268 2742 
Q 959 2388 959 1747 
Q 959 1106 1268 751 
Q 1578 397 2138 397 
Q 2388 397 2633 464 
Q 2878 531 3122 666 
L 3122 134 
Q 2881 22 2623 -34 
Q 2366 -91 2075 -91 
Q 1284 -91 818 406 
Q 353 903 353 1747 
Q 353 2603 823 3093 
Q 1294 3584 2113 3584 
Q 2378 3584 2631 3529 
Q 2884 3475 3122 3366 
z
" transform="scale(0.015625)"/>
        <path id="DejaVuSans-6b" d="M 581 4863 
L 1159 4863 
L 1159 1991 
L 2875 3500 
L 3609 3500 
L 1753 1863 
L 3688 0 
L 2938 0 
L 1159 1709 
L 1159 0 
L 581 0 
L 581 4863 
z
" transform="scale(0.015625)"/>
       </defs>
       <use xlink:href="#DejaVuSans-4e"/>
       <use xlink:href="#DejaVuSans-65" transform="translate(74.804688 0)"/>
       <use xlink:href="#DejaVuSans-63" transform="translate(136.328125 0)"/>
       <use xlink:href="#DejaVuSans-6b" transform="translate(191.308594 0)"/>
      </g>
     </g>
    </g>
    <g id="xtick_2">
     <g id="line2d_3">
      <path d="M 192.891826 344.434697 
L 192.891826 22.318125 
" clip-path="url(#pcbcd9a0ac7)" style="fill: none; stroke: #b0b0b0; stroke-width: 0.8; stroke-linecap: square"/>
     </g>
     <g id="line2d_4">
      <g>
       <use xlink:href="#m109019a606" x="192.891826" y="344.434697" style="stroke: #000000; stroke-width: 0.8"/>
      </g>
     </g>
     <g id="text_2">
      <!-- Hip/Thigh -->
      <g transform="translate(157.533173 390.695696) rotate(-45) scale(0.1 -0.1)">
       <defs>
        <path id="DejaVuSans-48" d="M 628 4666 
L 1259 4666 
L 1259 2753 
L 3553 2753 
L 3553 4666 
L 4184 4666 
L 4184 0 
L 3553 0 
L 3553 2222 
L 1259 2222 
L 1259 0 
L 628 0 
L 628 4666 
z
" transform="scale(0.015625)"/>
        <path id="DejaVuSans-69" d="M 603 3500 
L 1178 3500 
L 1178 0 
L 603 0 
L 603 3500 
z
M 603 4863 
L 1178 4863 
L 1178 4134 
L 603 4134 
L 603 4863 
z
" transform="scale(0.015625)"/>
        <path id="DejaVuSans-70" d="M 1159 525 
L 1159 -1331 
L 581 -1331 
L 581 3500 
L 1159 3500 
L 1159 2969 
Q 1341 3281 1617 3432 
Q 1894 3584 2278 3584 
Q 2916 3584 3314 3078 
Q 3713 2572 3713 1747 
Q 3713 922 3314 415 
Q 2916 -91 2278 -91 
Q 1894 -91 1617 61 
Q 1341 213 1159 525 
z
M 3116 1747 
Q 3116 2381 2855 2742 
Q 2594 3103 2138 3103 
Q 1681 3103 1420 2742 
Q 1159 2381 1159 1747 
Q 1159 1113 1420 752 
Q 1681 391 2138 391 
Q 2594 391 2855 752 
Q 3116 1113 3116 1747 
z
" transform="scale(0.015625)"/>
        <path id="DejaVuSans-2f" d="M 1625 4666 
L 2156 4666 
L 531 -594 
L 0 -594 
L 1625 4666 
z
" transform="scale(0.015625)"/>
        <path id="DejaVuSans-54" d="M -19 4666 
L 3928 4666 
L 3928 4134 
L 2272 4134 
L 2272 0 
L 1638 0 
L 1638 4134 
L -19 4134 
L -19 4666 
z
" transform="scale(0.015625)"/>
        <path id="DejaVuSans-68" d="M 3513 2113 
L 3513 0 
L 2938 0 
L 2938 2094 
Q 2938 2591 2744 2837 
Q 2550 3084 2163 3084 
Q 1697 3084 1428 2787 
Q 1159 2491 1159 1978 
L 1159 0 
L 581 0 
L 581 4863 
L 1159 4863 
L 1159 2956 
Q 1366 3272 1645 3428 
Q 1925 3584 2291 3584 
Q 2894 3584 3203 3211 
Q 3513 2838 3513 2113 
z
" transform="scale(0.015625)"/>
        <path id="DejaVuSans-67" d="M 2906 1791 
Q 2906 2416 2648 2759 
Q 2391 3103 1925 3103 
Q 1463 3103 1205 2759 
Q 947 2416 947 1791 
Q 947 1169 1205 825 
Q 1463 481 1925 481 
Q 2391 481 2648 825 
Q 2906 1169 2906 1791 
z
M 3481 434 
Q 3481 -459 3084 -895 
Q 2688 -1331 1869 -1331 
Q 1566 -1331 1297 -1286 
Q 1028 -1241 775 -1147 
L 775 -588 
Q 1028 -725 1275 -790 
Q 1522 -856 1778 -856 
Q 2344 -856 2625 -561 
Q 2906 -266 2906 331 
L 2906 616 
Q 2728 306 2450 153 
Q 2172 0 1784 0 
Q 1141 0 747 490 
Q 353 981 353 1791 
Q 353 2603 747 3093 
Q 1141 3584 1784 3584 
Q 2172 3584 2450 3431 
Q 2728 3278 2906 2969 
L 2906 3500 
L 3481 3500 
L 3481 434 
z
" transform="scale(0.015625)"/>
       </defs>
       <use xlink:href="#DejaVuSans-48"/>
       <use xlink:href="#DejaVuSans-69" transform="translate(75.195312 0)"/>
       <use xlink:href="#DejaVuSans-70" transform="translate(102.978516 0)"/>
       <use xlink:href="#DejaVuSans-2f" transform="translate(166.455078 0)"/>
       <use xlink:href="#DejaVuSans-54" transform="translate(200.146484 0)"/>
       <use xlink:href="#DejaVuSans-68" transform="translate(261.230469 0)"/>
       <use xlink:href="#DejaVuSans-69" transform="translate(324.609375 0)"/>
       <use xlink:href="#DejaVuSans-67" transform="translate(352.392578 0)"/>
       <use xlink:href="#DejaVuSans-68" transform="translate(415.869141 0)"/>
      </g>
     </g>
    </g>
    <g id="xtick_3">
     <g id="line2d_5">
      <path d="M 266.735054 344.434697 
L 266.735054 22.318125 
" clip-path="url(#pcbcd9a0ac7)" style="fill: none; stroke: #b0b0b0; stroke-width: 0.8; stroke-linecap: square"/>
     </g>
     <g id="line2d_6">
      <g>
       <use xlink:href="#m109019a606" x="266.735054" y="344.434697" style="stroke: #000000; stroke-width: 0.8"/>
      </g>
     </g>
     <g id="text_3">
      <!-- Ankle -->
      <g transform="translate(245.536214 376.535882) rotate(-45) scale(0.1 -0.1)">
       <defs>
        <path id="DejaVuSans-41" d="M 2188 4044 
L 1331 1722 
L 3047 1722 
L 2188 4044 
z
M 1831 4666 
L 2547 4666 
L 4325 0 
L 3669 0 
L 3244 1197 
L 1141 1197 
L 716 0 
L 50 0 
L 1831 4666 
z
" transform="scale(0.015625)"/>
        <path id="DejaVuSans-6e" d="M 3513 2113 
L 3513 0 
L 2938 0 
L 2938 2094 
Q 2938 2591 2744 2837 
Q 2550 3084 2163 3084 
Q 1697 3084 1428 2787 
Q 1159 2491 1159 1978 
L 1159 0 
L 581 0 
L 581 3500 
L 1159 3500 
L 1159 2956 
Q 1366 3272 1645 3428 
Q 1925 3584 2291 3584 
Q 2894 3584 3203 3211 
Q 3513 2838 3513 2113 
z
" transform="scale(0.015625)"/>
        <path id="DejaVuSans-6c" d="M 603 4863 
L 1178 4863 
L 1178 0 
L 603 0 
L 603 4863 
z
" transform="scale(0.015625)"/>
       </defs>
       <use xlink:href="#DejaVuSans-41"/>
       <use xlink:href="#DejaVuSans-6e" transform="translate(68.408203 0)"/>
       <use xlink:href="#DejaVuSans-6b" transform="translate(131.787109 0)"/>
       <use xlink:href="#DejaVuSans-6c" transform="translate(189.697266 0)"/>
       <use xlink:href="#DejaVuSans-65" transform="translate(217.480469 0)"/>
      </g>
     </g>
    </g>
    <g id="xtick_4">
     <g id="line2d_7">
      <path d="M 340.578283 344.434697 
L 340.578283 22.318125 
" clip-path="url(#pcbcd9a0ac7)" style="fill: none; stroke: #b0b0b0; stroke-width: 0.8; stroke-linecap: square"/>
     </g>
     <g id="line2d_8">
      <g>
       <use xlink:href="#m109019a606" x="340.578283" y="344.434697" style="stroke: #000000; stroke-width: 0.8"/>
      </g>
     </g>
     <g id="text_4">
      <!-- Belly/Lower back -->
      <g transform="translate(279.173793 416.741532) rotate(-45) scale(0.1 -0.1)">
       <defs>
        <path id="DejaVuSans-42" d="M 1259 2228 
L 1259 519 
L 2272 519 
Q 2781 519 3026 730 
Q 3272 941 3272 1375 
Q 3272 1813 3026 2020 
Q 2781 2228 2272 2228 
L 1259 2228 
z
M 1259 4147 
L 1259 2741 
L 2194 2741 
Q 2656 2741 2882 2914 
Q 3109 3088 3109 3444 
Q 3109 3797 2882 3972 
Q 2656 4147 2194 4147 
L 1259 4147 
z
M 628 4666 
L 2241 4666 
Q 2963 4666 3353 4366 
Q 3744 4066 3744 3513 
Q 3744 3084 3544 2831 
Q 3344 2578 2956 2516 
Q 3422 2416 3680 2098 
Q 3938 1781 3938 1306 
Q 3938 681 3513 340 
Q 3088 0 2303 0 
L 628 0 
L 628 4666 
z
" transform="scale(0.015625)"/>
        <path id="DejaVuSans-79" d="M 2059 -325 
Q 1816 -950 1584 -1140 
Q 1353 -1331 966 -1331 
L 506 -1331 
L 506 -850 
L 844 -850 
Q 1081 -850 1212 -737 
Q 1344 -625 1503 -206 
L 1606 56 
L 191 3500 
L 800 3500 
L 1894 763 
L 2988 3500 
L 3597 3500 
L 2059 -325 
z
" transform="scale(0.015625)"/>
        <path id="DejaVuSans-4c" d="M 628 4666 
L 1259 4666 
L 1259 531 
L 3531 531 
L 3531 0 
L 628 0 
L 628 4666 
z
" transform="scale(0.015625)"/>
        <path id="DejaVuSans-6f" d="M 1959 3097 
Q 1497 3097 1228 2736 
Q 959 2375 959 1747 
Q 959 1119 1226 758 
Q 1494 397 1959 397 
Q 2419 397 2687 759 
Q 2956 1122 2956 1747 
Q 2956 2369 2687 2733 
Q 2419 3097 1959 3097 
z
M 1959 3584 
Q 2709 3584 3137 3096 
Q 3566 2609 3566 1747 
Q 3566 888 3137 398 
Q 2709 -91 1959 -91 
Q 1206 -91 779 398 
Q 353 888 353 1747 
Q 353 2609 779 3096 
Q 1206 3584 1959 3584 
z
" transform="scale(0.015625)"/>
        <path id="DejaVuSans-77" d="M 269 3500 
L 844 3500 
L 1563 769 
L 2278 3500 
L 2956 3500 
L 3675 769 
L 4391 3500 
L 4966 3500 
L 4050 0 
L 3372 0 
L 2619 2869 
L 1863 0 
L 1184 0 
L 269 3500 
z
" transform="scale(0.015625)"/>
        <path id="DejaVuSans-72" d="M 2631 2963 
Q 2534 3019 2420 3045 
Q 2306 3072 2169 3072 
Q 1681 3072 1420 2755 
Q 1159 2438 1159 1844 
L 1159 0 
L 581 0 
L 581 3500 
L 1159 3500 
L 1159 2956 
Q 1341 3275 1631 3429 
Q 1922 3584 2338 3584 
Q 2397 3584 2469 3576 
Q 2541 3569 2628 3553 
L 2631 2963 
z
" transform="scale(0.015625)"/>
        <path id="DejaVuSans-20" transform="scale(0.015625)"/>
        <path id="DejaVuSans-62" d="M 3116 1747 
Q 3116 2381 2855 2742 
Q 2594 3103 2138 3103 
Q 1681 3103 1420 2742 
Q 1159 2381 1159 1747 
Q 1159 1113 1420 752 
Q 1681 391 2138 391 
Q 2594 391 2855 752 
Q 3116 1113 3116 1747 
z
M 1159 2969 
Q 1341 3281 1617 3432 
Q 1894 3584 2278 3584 
Q 2916 3584 3314 3078 
Q 3713 2572 3713 1747 
Q 3713 922 3314 415 
Q 2916 -91 2278 -91 
Q 1894 -91 1617 61 
Q 1341 213 1159 525 
L 1159 0 
L 581 0 
L 581 4863 
L 1159 4863 
L 1159 2969 
z
" transform="scale(0.015625)"/>
        <path id="DejaVuSans-61" d="M 2194 1759 
Q 1497 1759 1228 1600 
Q 959 1441 959 1056 
Q 959 750 1161 570 
Q 1363 391 1709 391 
Q 2188 391 2477 730 
Q 2766 1069 2766 1631 
L 2766 1759 
L 2194 1759 
z
M 3341 1997 
L 3341 0 
L 2766 0 
L 2766 531 
Q 2569 213 2275 61 
Q 1981 -91 1556 -91 
Q 1019 -91 701 211 
Q 384 513 384 1019 
Q 384 1609 779 1909 
Q 1175 2209 1959 2209 
L 2766 2209 
L 2766 2266 
Q 2766 2663 2505 2880 
Q 2244 3097 1772 3097 
Q 1472 3097 1187 3025 
Q 903 2953 641 2809 
L 641 3341 
Q 956 3463 1253 3523 
Q 1550 3584 1831 3584 
Q 2591 3584 2966 3190 
Q 3341 2797 3341 1997 
z
" transform="scale(0.015625)"/>
       </defs>
       <use xlink:href="#DejaVuSans-42"/>
       <use xlink:href="#DejaVuSans-65" transform="translate(68.603516 0)"/>
       <use xlink:href="#DejaVuSans-6c" transform="translate(130.126953 0)"/>
       <use xlink:href="#DejaVuSans-6c" transform="translate(157.910156 0)"/>
       <use xlink:href="#DejaVuSans-79" transform="translate(185.693359 0)"/>
       <use xlink:href="#DejaVuSans-2f" transform="translate(244.873047 0)"/>
       <use xlink:href="#DejaVuSans-4c" transform="translate(278.564453 0)"/>
       <use xlink:href="#DejaVuSans-6f" transform="translate(332.527344 0)"/>
       <use xlink:href="#DejaVuSans-77" transform="translate(393.708984 0)"/>
       <use xlink:href="#DejaVuSans-65" transform="translate(475.496094 0)"/>
       <use xlink:href="#DejaVuSans-72" transform="translate(537.019531 0)"/>
       <use xlink:href="#DejaVuSans-20" transform="translate(578.132812 0)"/>
       <use xlink:href="#DejaVuSans-62" transform="translate(609.919922 0)"/>
       <use xlink:href="#DejaVuSans-61" transform="translate(673.396484 0)"/>
       <use xlink:href="#DejaVuSans-63" transform="translate(734.675781 0)"/>
       <use xlink:href="#DejaVuSans-6b" transform="translate(789.65625 0)"/>
      </g>
     </g>
    </g>
    <g id="xtick_5">
     <g id="line2d_9">
      <path d="M 414.421511 344.434697 
L 414.421511 22.318125 
" clip-path="url(#pcbcd9a0ac7)" style="fill: none; stroke: #b0b0b0; stroke-width: 0.8; stroke-linecap: square"/>
     </g>
     <g id="line2d_10">
      <g>
       <use xlink:href="#m109019a606" x="414.421511" y="344.434697" style="stroke: #000000; stroke-width: 0.8"/>
      </g>
     </g>
     <g id="text_5">
      <!-- Chest -->
      <g transform="translate(392.725486 377.033067) rotate(-45) scale(0.1 -0.1)">
       <defs>
        <path id="DejaVuSans-43" d="M 4122 4306 
L 4122 3641 
Q 3803 3938 3442 4084 
Q 3081 4231 2675 4231 
Q 1875 4231 1450 3742 
Q 1025 3253 1025 2328 
Q 1025 1406 1450 917 
Q 1875 428 2675 428 
Q 3081 428 3442 575 
Q 3803 722 4122 1019 
L 4122 359 
Q 3791 134 3420 21 
Q 3050 -91 2638 -91 
Q 1578 -91 968 557 
Q 359 1206 359 2328 
Q 359 3453 968 4101 
Q 1578 4750 2638 4750 
Q 3056 4750 3426 4639 
Q 3797 4528 4122 4306 
z
" transform="scale(0.015625)"/>
        <path id="DejaVuSans-73" d="M 2834 3397 
L 2834 2853 
Q 2591 2978 2328 3040 
Q 2066 3103 1784 3103 
Q 1356 3103 1142 2972 
Q 928 2841 928 2578 
Q 928 2378 1081 2264 
Q 1234 2150 1697 2047 
L 1894 2003 
Q 2506 1872 2764 1633 
Q 3022 1394 3022 966 
Q 3022 478 2636 193 
Q 2250 -91 1575 -91 
Q 1294 -91 989 -36 
Q 684 19 347 128 
L 347 722 
Q 666 556 975 473 
Q 1284 391 1588 391 
Q 1994 391 2212 530 
Q 2431 669 2431 922 
Q 2431 1156 2273 1281 
Q 2116 1406 1581 1522 
L 1381 1569 
Q 847 1681 609 1914 
Q 372 2147 372 2553 
Q 372 3047 722 3315 
Q 1072 3584 1716 3584 
Q 2034 3584 2315 3537 
Q 2597 3491 2834 3397 
z
" transform="scale(0.015625)"/>
        <path id="DejaVuSans-74" d="M 1172 4494 
L 1172 3500 
L 2356 3500 
L 2356 3053 
L 1172 3053 
L 1172 1153 
Q 1172 725 1289 603 
Q 1406 481 1766 481 
L 2356 481 
L 2356 0 
L 1766 0 
Q 1100 0 847 248 
Q 594 497 594 1153 
L 594 3053 
L 172 3053 
L 172 3500 
L 594 3500 
L 594 4494 
L 1172 4494 
z
" transform="scale(0.015625)"/>
       </defs>
       <use xlink:href="#DejaVuSans-43"/>
       <use xlink:href="#DejaVuSans-68" transform="translate(69.824219 0)"/>
       <use xlink:href="#DejaVuSans-65" transform="translate(133.203125 0)"/>
       <use xlink:href="#DejaVuSans-73" transform="translate(194.726562 0)"/>
       <use xlink:href="#DejaVuSans-74" transform="translate(246.826172 0)"/>
      </g>
     </g>
    </g>
    <g id="xtick_6">
     <g id="line2d_11">
      <path d="M 488.264739 344.434697 
L 488.264739 22.318125 
" clip-path="url(#pcbcd9a0ac7)" style="fill: none; stroke: #b0b0b0; stroke-width: 0.8; stroke-linecap: square"/>
     </g>
     <g id="line2d_12">
      <g>
       <use xlink:href="#m109019a606" x="488.264739" y="344.434697" style="stroke: #000000; stroke-width: 0.8"/>
      </g>
     </g>
     <g id="text_6">
      <!-- Elbow/Forearm -->
      <g transform="translate(434.141239 409.460542) rotate(-45) scale(0.1 -0.1)">
       <defs>
        <path id="DejaVuSans-45" d="M 628 4666 
L 3578 4666 
L 3578 4134 
L 1259 4134 
L 1259 2753 
L 3481 2753 
L 3481 2222 
L 1259 2222 
L 1259 531 
L 3634 531 
L 3634 0 
L 628 0 
L 628 4666 
z
" transform="scale(0.015625)"/>
        <path id="DejaVuSans-46" d="M 628 4666 
L 3309 4666 
L 3309 4134 
L 1259 4134 
L 1259 2759 
L 3109 2759 
L 3109 2228 
L 1259 2228 
L 1259 0 
L 628 0 
L 628 4666 
z
" transform="scale(0.015625)"/>
        <path id="DejaVuSans-6d" d="M 3328 2828 
Q 3544 3216 3844 3400 
Q 4144 3584 4550 3584 
Q 5097 3584 5394 3201 
Q 5691 2819 5691 2113 
L 5691 0 
L 5113 0 
L 5113 2094 
Q 5113 2597 4934 2840 
Q 4756 3084 4391 3084 
Q 3944 3084 3684 2787 
Q 3425 2491 3425 1978 
L 3425 0 
L 2847 0 
L 2847 2094 
Q 2847 2600 2669 2842 
Q 2491 3084 2119 3084 
Q 1678 3084 1418 2786 
Q 1159 2488 1159 1978 
L 1159 0 
L 581 0 
L 581 3500 
L 1159 3500 
L 1159 2956 
Q 1356 3278 1631 3431 
Q 1906 3584 2284 3584 
Q 2666 3584 2933 3390 
Q 3200 3197 3328 2828 
z
" transform="scale(0.015625)"/>
       </defs>
       <use xlink:href="#DejaVuSans-45"/>
       <use xlink:href="#DejaVuSans-6c" transform="translate(63.183594 0)"/>
       <use xlink:href="#DejaVuSans-62" transform="translate(90.966797 0)"/>
       <use xlink:href="#DejaVuSans-6f" transform="translate(154.443359 0)"/>
       <use xlink:href="#DejaVuSans-77" transform="translate(215.625 0)"/>
       <use xlink:href="#DejaVuSans-2f" transform="translate(297.412109 0)"/>
       <use xlink:href="#DejaVuSans-46" transform="translate(331.103516 0)"/>
       <use xlink:href="#DejaVuSans-6f" transform="translate(384.998047 0)"/>
       <use xlink:href="#DejaVuSans-72" transform="translate(446.179688 0)"/>
       <use xlink:href="#DejaVuSans-65" transform="translate(485.042969 0)"/>
       <use xlink:href="#DejaVuSans-61" transform="translate(546.566406 0)"/>
       <use xlink:href="#DejaVuSans-72" transform="translate(607.845703 0)"/>
       <use xlink:href="#DejaVuSans-6d" transform="translate(647.208984 0)"/>
      </g>
     </g>
    </g>
    <g id="xtick_7">
     <g id="line2d_13">
      <path d="M 562.107967 344.434697 
L 562.107967 22.318125 
" clip-path="url(#pcbcd9a0ac7)" style="fill: none; stroke: #b0b0b0; stroke-width: 0.8; stroke-linecap: square"/>
     </g>
     <g id="line2d_14">
      <g>
       <use xlink:href="#m109019a606" x="562.107967" y="344.434697" style="stroke: #000000; stroke-width: 0.8"/>
      </g>
     </g>
     <g id="text_7">
      <!-- Knee -->
      <g transform="translate(542.81721 374.627799) rotate(-45) scale(0.1 -0.1)">
       <defs>
        <path id="DejaVuSans-4b" d="M 628 4666 
L 1259 4666 
L 1259 2694 
L 3353 4666 
L 4166 4666 
L 1850 2491 
L 4331 0 
L 3500 0 
L 1259 2247 
L 1259 0 
L 628 0 
L 628 4666 
z
" transform="scale(0.015625)"/>
       </defs>
       <use xlink:href="#DejaVuSans-4b"/>
       <use xlink:href="#DejaVuSans-6e" transform="translate(65.576172 0)"/>
       <use xlink:href="#DejaVuSans-65" transform="translate(128.955078 0)"/>
       <use xlink:href="#DejaVuSans-65" transform="translate(190.478516 0)"/>
      </g>
     </g>
    </g>
    <g id="xtick_8">
     <g id="line2d_15">
      <path d="M 635.951196 344.434697 
L 635.951196 22.318125 
" clip-path="url(#pcbcd9a0ac7)" style="fill: none; stroke: #b0b0b0; stroke-width: 0.8; stroke-linecap: square"/>
     </g>
     <g id="line2d_16">
      <g>
       <use xlink:href="#m109019a606" x="635.951196" y="344.434697" style="stroke: #000000; stroke-width: 0.8"/>
      </g>
     </g>
     <g id="text_8">
      <!-- Wrist -->
      <g transform="translate(616.480347 374.80789) rotate(-45) scale(0.1 -0.1)">
       <defs>
        <path id="DejaVuSans-57" d="M 213 4666 
L 850 4666 
L 1831 722 
L 2809 4666 
L 3519 4666 
L 4500 722 
L 5478 4666 
L 6119 4666 
L 4947 0 
L 4153 0 
L 3169 4050 
L 2175 0 
L 1381 0 
L 213 4666 
z
" transform="scale(0.015625)"/>
       </defs>
       <use xlink:href="#DejaVuSans-57"/>
       <use xlink:href="#DejaVuSans-72" transform="translate(94.376953 0)"/>
       <use xlink:href="#DejaVuSans-69" transform="translate(135.490234 0)"/>
       <use xlink:href="#DejaVuSans-73" transform="translate(163.273438 0)"/>
       <use xlink:href="#DejaVuSans-74" transform="translate(215.373047 0)"/>
      </g>
     </g>
    </g>
    <g id="xtick_9">
     <g id="line2d_17">
      <path d="M 709.794424 344.434697 
L 709.794424 22.318125 
" clip-path="url(#pcbcd9a0ac7)" style="fill: none; stroke: #b0b0b0; stroke-width: 0.8; stroke-linecap: square"/>
     </g>
     <g id="line2d_18">
      <g>
       <use xlink:href="#m109019a606" x="709.794424" y="344.434697" style="stroke: #000000; stroke-width: 0.8"/>
      </g>
     </g>
     <g id="text_9">
      <!-- Upper arm -->
      <g transform="translate(670.661588 394.469878) rotate(-45) scale(0.1 -0.1)">
       <defs>
        <path id="DejaVuSans-55" d="M 556 4666 
L 1191 4666 
L 1191 1831 
Q 1191 1081 1462 751 
Q 1734 422 2344 422 
Q 2950 422 3222 751 
Q 3494 1081 3494 1831 
L 3494 4666 
L 4128 4666 
L 4128 1753 
Q 4128 841 3676 375 
Q 3225 -91 2344 -91 
Q 1459 -91 1007 375 
Q 556 841 556 1753 
L 556 4666 
z
" transform="scale(0.015625)"/>
       </defs>
       <use xlink:href="#DejaVuSans-55"/>
       <use xlink:href="#DejaVuSans-70" transform="translate(73.193359 0)"/>
       <use xlink:href="#DejaVuSans-70" transform="translate(136.669922 0)"/>
       <use xlink:href="#DejaVuSans-65" transform="translate(200.146484 0)"/>
       <use xlink:href="#DejaVuSans-72" transform="translate(261.669922 0)"/>
       <use xlink:href="#DejaVuSans-20" transform="translate(302.783203 0)"/>
       <use xlink:href="#DejaVuSans-61" transform="translate(334.570312 0)"/>
       <use xlink:href="#DejaVuSans-72" transform="translate(395.849609 0)"/>
       <use xlink:href="#DejaVuSans-6d" transform="translate(435.212891 0)"/>
      </g>
     </g>
    </g>
    <g id="xtick_10">
     <g id="line2d_19">
      <path d="M 783.637652 344.434697 
L 783.637652 22.318125 
" clip-path="url(#pcbcd9a0ac7)" style="fill: none; stroke: #b0b0b0; stroke-width: 0.8; stroke-linecap: square"/>
     </g>
     <g id="line2d_20">
      <g>
       <use xlink:href="#m109019a606" x="783.637652" y="344.434697" style="stroke: #000000; stroke-width: 0.8"/>
      </g>
     </g>
     <g id="text_10">
      <!-- Head -->
      <g transform="translate(763.676248 375.298446) rotate(-45) scale(0.1 -0.1)">
       <defs>
        <path id="DejaVuSans-64" d="M 2906 2969 
L 2906 4863 
L 3481 4863 
L 3481 0 
L 2906 0 
L 2906 525 
Q 2725 213 2448 61 
Q 2172 -91 1784 -91 
Q 1150 -91 751 415 
Q 353 922 353 1747 
Q 353 2572 751 3078 
Q 1150 3584 1784 3584 
Q 2172 3584 2448 3432 
Q 2725 3281 2906 2969 
z
M 947 1747 
Q 947 1113 1208 752 
Q 1469 391 1925 391 
Q 2381 391 2643 752 
Q 2906 1113 2906 1747 
Q 2906 2381 2643 2742 
Q 2381 3103 1925 3103 
Q 1469 3103 1208 2742 
Q 947 2381 947 1747 
z
" transform="scale(0.015625)"/>
       </defs>
       <use xlink:href="#DejaVuSans-48"/>
       <use xlink:href="#DejaVuSans-65" transform="translate(75.195312 0)"/>
       <use xlink:href="#DejaVuSans-61" transform="translate(136.71875 0)"/>
       <use xlink:href="#DejaVuSans-64" transform="translate(197.998047 0)"/>
      </g>
     </g>
    </g>
    <g id="text_11">
     <!-- Injured body part -->
     <g transform="translate(408.148594 429.810531) scale(0.1 -0.1)">
      <defs>
       <path id="DejaVuSans-49" d="M 628 4666 
L 1259 4666 
L 1259 0 
L 628 0 
L 628 4666 
z
" transform="scale(0.015625)"/>
       <path id="DejaVuSans-6a" d="M 603 3500 
L 1178 3500 
L 1178 -63 
Q 1178 -731 923 -1031 
Q 669 -1331 103 -1331 
L -116 -1331 
L -116 -844 
L 38 -844 
Q 366 -844 484 -692 
Q 603 -541 603 -63 
L 603 3500 
z
M 603 4863 
L 1178 4863 
L 1178 4134 
L 603 4134 
L 603 4863 
z
" transform="scale(0.015625)"/>
       <path id="DejaVuSans-75" d="M 544 1381 
L 544 3500 
L 1119 3500 
L 1119 1403 
Q 1119 906 1312 657 
Q 1506 409 1894 409 
Q 2359 409 2629 706 
Q 2900 1003 2900 1516 
L 2900 3500 
L 3475 3500 
L 3475 0 
L 2900 0 
L 2900 538 
Q 2691 219 2414 64 
Q 2138 -91 1772 -91 
Q 1169 -91 856 284 
Q 544 659 544 1381 
z
M 1991 3584 
L 1991 3584 
z
" transform="scale(0.015625)"/>
      </defs>
      <use xlink:href="#DejaVuSans-49"/>
      <use xlink:href="#DejaVuSans-6e" transform="translate(29.492188 0)"/>
      <use xlink:href="#DejaVuSans-6a" transform="translate(92.871094 0)"/>
      <use xlink:href="#DejaVuSans-75" transform="translate(120.654297 0)"/>
      <use xlink:href="#DejaVuSans-72" transform="translate(184.033203 0)"/>
      <use xlink:href="#DejaVuSans-65" transform="translate(222.896484 0)"/>
      <use xlink:href="#DejaVuSans-64" transform="translate(284.419922 0)"/>
      <use xlink:href="#DejaVuSans-20" transform="translate(347.896484 0)"/>
      <use xlink:href="#DejaVuSans-62" transform="translate(379.683594 0)"/>
      <use xlink:href="#DejaVuSans-6f" transform="translate(443.160156 0)"/>
      <use xlink:href="#DejaVuSans-64" transform="translate(504.341797 0)"/>
      <use xlink:href="#DejaVuSans-79" transform="translate(567.818359 0)"/>
      <use xlink:href="#DejaVuSans-20" transform="translate(626.998047 0)"/>
      <use xlink:href="#DejaVuSans-70" transform="translate(658.785156 0)"/>
      <use xlink:href="#DejaVuSans-61" transform="translate(722.261719 0)"/>
      <use xlink:href="#DejaVuSans-72" transform="translate(783.541016 0)"/>
      <use xlink:href="#DejaVuSans-74" transform="translate(824.654297 0)"/>
     </g>
    </g>
   </g>
   <g id="matplotlib.axis_2">
    <g id="ytick_1">
     <g id="line2d_21">
      <path d="M 53.328125 344.434697 
L 849.358125 344.434697 
" clip-path="url(#pcbcd9a0ac7)" style="fill: none; stroke: #b0b0b0; stroke-width: 0.8; stroke-linecap: square"/>
     </g>
     <g id="line2d_22">
      <defs>
       <path id="mb16ba52ba5" d="M 0 0 
L -3.5 0 
" style="stroke: #000000; stroke-width: 0.8"/>
      </defs>
      <g>
       <use xlink:href="#mb16ba52ba5" x="53.328125" y="344.434697" style="stroke: #000000; stroke-width: 0.8"/>
      </g>
     </g>
     <g id="text_12">
      <!-- 0 -->
      <g transform="translate(39.965625 348.233915) scale(0.1 -0.1)">
       <defs>
        <path id="DejaVuSans-30" d="M 2034 4250 
Q 1547 4250 1301 3770 
Q 1056 3291 1056 2328 
Q 1056 1369 1301 889 
Q 1547 409 2034 409 
Q 2525 409 2770 889 
Q 3016 1369 3016 2328 
Q 3016 3291 2770 3770 
Q 2525 4250 2034 4250 
z
M 2034 4750 
Q 2819 4750 3233 4129 
Q 3647 3509 3647 2328 
Q 3647 1150 3233 529 
Q 2819 -91 2034 -91 
Q 1250 -91 836 529 
Q 422 1150 422 2328 
Q 422 3509 836 4129 
Q 1250 4750 2034 4750 
z
" transform="scale(0.015625)"/>
       </defs>
       <use xlink:href="#DejaVuSans-30"/>
      </g>
     </g>
    </g>
    <g id="ytick_2">
     <g id="line2d_23">
      <path d="M 53.328125 279.890685 
L 849.358125 279.890685 
" clip-path="url(#pcbcd9a0ac7)" style="fill: none; stroke: #b0b0b0; stroke-width: 0.8; stroke-linecap: square"/>
     </g>
     <g id="line2d_24">
      <g>
       <use xlink:href="#mb16ba52ba5" x="53.328125" y="279.890685" style="stroke: #000000; stroke-width: 0.8"/>
      </g>
     </g>
     <g id="text_13">
      <!-- 1000 -->
      <g transform="translate(20.878125 283.689904) scale(0.1 -0.1)">
       <defs>
        <path id="DejaVuSans-31" d="M 794 531 
L 1825 531 
L 1825 4091 
L 703 3866 
L 703 4441 
L 1819 4666 
L 2450 4666 
L 2450 531 
L 3481 531 
L 3481 0 
L 794 0 
L 794 531 
z
" transform="scale(0.015625)"/>
       </defs>
       <use xlink:href="#DejaVuSans-31"/>
       <use xlink:href="#DejaVuSans-30" transform="translate(63.623047 0)"/>
       <use xlink:href="#DejaVuSans-30" transform="translate(127.246094 0)"/>
       <use xlink:href="#DejaVuSans-30" transform="translate(190.869141 0)"/>
      </g>
     </g>
    </g>
    <g id="ytick_3">
     <g id="line2d_25">
      <path d="M 53.328125 215.346673 
L 849.358125 215.346673 
" clip-path="url(#pcbcd9a0ac7)" style="fill: none; stroke: #b0b0b0; stroke-width: 0.8; stroke-linecap: square"/>
     </g>
     <g id="line2d_26">
      <g>
       <use xlink:href="#mb16ba52ba5" x="53.328125" y="215.346673" style="stroke: #000000; stroke-width: 0.8"/>
      </g>
     </g>
     <g id="text_14">
      <!-- 2000 -->
      <g transform="translate(20.878125 219.145892) scale(0.1 -0.1)">
       <defs>
        <path id="DejaVuSans-32" d="M 1228 531 
L 3431 531 
L 3431 0 
L 469 0 
L 469 531 
Q 828 903 1448 1529 
Q 2069 2156 2228 2338 
Q 2531 2678 2651 2914 
Q 2772 3150 2772 3378 
Q 2772 3750 2511 3984 
Q 2250 4219 1831 4219 
Q 1534 4219 1204 4116 
Q 875 4013 500 3803 
L 500 4441 
Q 881 4594 1212 4672 
Q 1544 4750 1819 4750 
Q 2544 4750 2975 4387 
Q 3406 4025 3406 3419 
Q 3406 3131 3298 2873 
Q 3191 2616 2906 2266 
Q 2828 2175 2409 1742 
Q 1991 1309 1228 531 
z
" transform="scale(0.015625)"/>
       </defs>
       <use xlink:href="#DejaVuSans-32"/>
       <use xlink:href="#DejaVuSans-30" transform="translate(63.623047 0)"/>
       <use xlink:href="#DejaVuSans-30" transform="translate(127.246094 0)"/>
       <use xlink:href="#DejaVuSans-30" transform="translate(190.869141 0)"/>
      </g>
     </g>
    </g>
    <g id="ytick_4">
     <g id="line2d_27">
      <path d="M 53.328125 150.802662 
L 849.358125 150.802662 
" clip-path="url(#pcbcd9a0ac7)" style="fill: none; stroke: #b0b0b0; stroke-width: 0.8; stroke-linecap: square"/>
     </g>
     <g id="line2d_28">
      <g>
       <use xlink:href="#mb16ba52ba5" x="53.328125" y="150.802662" style="stroke: #000000; stroke-width: 0.8"/>
      </g>
     </g>
     <g id="text_15">
      <!-- 3000 -->
      <g transform="translate(20.878125 154.60188) scale(0.1 -0.1)">
       <defs>
        <path id="DejaVuSans-33" d="M 2597 2516 
Q 3050 2419 3304 2112 
Q 3559 1806 3559 1356 
Q 3559 666 3084 287 
Q 2609 -91 1734 -91 
Q 1441 -91 1130 -33 
Q 819 25 488 141 
L 488 750 
Q 750 597 1062 519 
Q 1375 441 1716 441 
Q 2309 441 2620 675 
Q 2931 909 2931 1356 
Q 2931 1769 2642 2001 
Q 2353 2234 1838 2234 
L 1294 2234 
L 1294 2753 
L 1863 2753 
Q 2328 2753 2575 2939 
Q 2822 3125 2822 3475 
Q 2822 3834 2567 4026 
Q 2313 4219 1838 4219 
Q 1578 4219 1281 4162 
Q 984 4106 628 3988 
L 628 4550 
Q 988 4650 1302 4700 
Q 1616 4750 1894 4750 
Q 2613 4750 3031 4423 
Q 3450 4097 3450 3541 
Q 3450 3153 3228 2886 
Q 3006 2619 2597 2516 
z
" transform="scale(0.015625)"/>
       </defs>
       <use xlink:href="#DejaVuSans-33"/>
       <use xlink:href="#DejaVuSans-30" transform="translate(63.623047 0)"/>
       <use xlink:href="#DejaVuSans-30" transform="translate(127.246094 0)"/>
       <use xlink:href="#DejaVuSans-30" transform="translate(190.869141 0)"/>
      </g>
     </g>
    </g>
    <g id="ytick_5">
     <g id="line2d_29">
      <path d="M 53.328125 86.25865 
L 849.358125 86.25865 
" clip-path="url(#pcbcd9a0ac7)" style="fill: none; stroke: #b0b0b0; stroke-width: 0.8; stroke-linecap: square"/>
     </g>
     <g id="line2d_30">
      <g>
       <use xlink:href="#mb16ba52ba5" x="53.328125" y="86.25865" style="stroke: #000000; stroke-width: 0.8"/>
      </g>
     </g>
     <g id="text_16">
      <!-- 4000 -->
      <g transform="translate(20.878125 90.057869) scale(0.1 -0.1)">
       <defs>
        <path id="DejaVuSans-34" d="M 2419 4116 
L 825 1625 
L 2419 1625 
L 2419 4116 
z
M 2253 4666 
L 3047 4666 
L 3047 1625 
L 3713 1625 
L 3713 1100 
L 3047 1100 
L 3047 0 
L 2419 0 
L 2419 1100 
L 313 1100 
L 313 1709 
L 2253 4666 
z
" transform="scale(0.015625)"/>
       </defs>
       <use xlink:href="#DejaVuSans-34"/>
       <use xlink:href="#DejaVuSans-30" transform="translate(63.623047 0)"/>
       <use xlink:href="#DejaVuSans-30" transform="translate(127.246094 0)"/>
       <use xlink:href="#DejaVuSans-30" transform="translate(190.869141 0)"/>
      </g>
     </g>
    </g>
    <g id="text_17">
     <!-- Injuries count -->
     <g transform="translate(14.798438 217.399067) rotate(-90) scale(0.1 -0.1)">
      <use xlink:href="#DejaVuSans-49"/>
      <use xlink:href="#DejaVuSans-6e" transform="translate(29.492188 0)"/>
      <use xlink:href="#DejaVuSans-6a" transform="translate(92.871094 0)"/>
      <use xlink:href="#DejaVuSans-75" transform="translate(120.654297 0)"/>
      <use xlink:href="#DejaVuSans-72" transform="translate(184.033203 0)"/>
      <use xlink:href="#DejaVuSans-69" transform="translate(225.146484 0)"/>
      <use xlink:href="#DejaVuSans-65" transform="translate(252.929688 0)"/>
      <use xlink:href="#DejaVuSans-73" transform="translate(314.453125 0)"/>
      <use xlink:href="#DejaVuSans-20" transform="translate(366.552734 0)"/>
      <use xlink:href="#DejaVuSans-63" transform="translate(398.339844 0)"/>
      <use xlink:href="#DejaVuSans-6f" transform="translate(453.320312 0)"/>
      <use xlink:href="#DejaVuSans-75" transform="translate(514.501953 0)"/>
      <use xlink:href="#DejaVuSans-6e" transform="translate(577.880859 0)"/>
      <use xlink:href="#DejaVuSans-74" transform="translate(641.259766 0)"/>
     </g>
    </g>
   </g>
   <g id="patch_73">
    <path d="M 53.328125 344.434697 
L 53.328125 22.318125 
" style="fill: none; stroke: #000000; stroke-width: 0.8; stroke-linejoin: miter; stroke-linecap: square"/>
   </g>
   <g id="patch_74">
    <path d="M 849.358125 344.434697 
L 849.358125 22.318125 
" style="fill: none; stroke: #000000; stroke-width: 0.8; stroke-linejoin: miter; stroke-linecap: square"/>
   </g>
   <g id="patch_75">
    <path d="M 53.328125 344.434697 
L 849.358125 344.434697 
" style="fill: none; stroke: #000000; stroke-width: 0.8; stroke-linejoin: miter; stroke-linecap: square"/>
   </g>
   <g id="patch_76">
    <path d="M 53.328125 22.318125 
L 849.358125 22.318125 
" style="fill: none; stroke: #000000; stroke-width: 0.8; stroke-linejoin: miter; stroke-linecap: square"/>
   </g>
   <g id="text_18">
    <!-- Injuries of cyclists by injured body part (2022) -->
    <g transform="translate(312.903438 16.318125) scale(0.12 -0.12)">
     <defs>
      <path id="DejaVuSans-66" d="M 2375 4863 
L 2375 4384 
L 1825 4384 
Q 1516 4384 1395 4259 
Q 1275 4134 1275 3809 
L 1275 3500 
L 2222 3500 
L 2222 3053 
L 1275 3053 
L 1275 0 
L 697 0 
L 697 3053 
L 147 3053 
L 147 3500 
L 697 3500 
L 697 3744 
Q 697 4328 969 4595 
Q 1241 4863 1831 4863 
L 2375 4863 
z
" transform="scale(0.015625)"/>
      <path id="DejaVuSans-28" d="M 1984 4856 
Q 1566 4138 1362 3434 
Q 1159 2731 1159 2009 
Q 1159 1288 1364 580 
Q 1569 -128 1984 -844 
L 1484 -844 
Q 1016 -109 783 600 
Q 550 1309 550 2009 
Q 550 2706 781 3412 
Q 1013 4119 1484 4856 
L 1984 4856 
z
" transform="scale(0.015625)"/>
      <path id="DejaVuSans-29" d="M 513 4856 
L 1013 4856 
Q 1481 4119 1714 3412 
Q 1947 2706 1947 2009 
Q 1947 1309 1714 600 
Q 1481 -109 1013 -844 
L 513 -844 
Q 928 -128 1133 580 
Q 1338 1288 1338 2009 
Q 1338 2731 1133 3434 
Q 928 4138 513 4856 
z
" transform="scale(0.015625)"/>
     </defs>
     <use xlink:href="#DejaVuSans-49"/>
     <use xlink:href="#DejaVuSans-6e" transform="translate(29.492188 0)"/>
     <use xlink:href="#DejaVuSans-6a" transform="translate(92.871094 0)"/>
     <use xlink:href="#DejaVuSans-75" transform="translate(120.654297 0)"/>
     <use xlink:href="#DejaVuSans-72" transform="translate(184.033203 0)"/>
     <use xlink:href="#DejaVuSans-69" transform="translate(225.146484 0)"/>
     <use xlink:href="#DejaVuSans-65" transform="translate(252.929688 0)"/>
     <use xlink:href="#DejaVuSans-73" transform="translate(314.453125 0)"/>
     <use xlink:href="#DejaVuSans-20" transform="translate(366.552734 0)"/>
     <use xlink:href="#DejaVuSans-6f" transform="translate(398.339844 0)"/>
     <use xlink:href="#DejaVuSans-66" transform="translate(459.521484 0)"/>
     <use xlink:href="#DejaVuSans-20" transform="translate(494.726562 0)"/>
     <use xlink:href="#DejaVuSans-63" transform="translate(526.513672 0)"/>
     <use xlink:href="#DejaVuSans-79" transform="translate(581.494141 0)"/>
     <use xlink:href="#DejaVuSans-63" transform="translate(640.673828 0)"/>
     <use xlink:href="#DejaVuSans-6c" transform="translate(695.654297 0)"/>
     <use xlink:href="#DejaVuSans-69" transform="translate(723.4375 0)"/>
     <use xlink:href="#DejaVuSans-73" transform="translate(751.220703 0)"/>
     <use xlink:href="#DejaVuSans-74" transform="translate(803.320312 0)"/>
     <use xlink:href="#DejaVuSans-73" transform="translate(842.529297 0)"/>
     <use xlink:href="#DejaVuSans-20" transform="translate(894.628906 0)"/>
     <use xlink:href="#DejaVuSans-62" transform="translate(926.416016 0)"/>
     <use xlink:href="#DejaVuSans-79" transform="translate(989.892578 0)"/>
     <use xlink:href="#DejaVuSans-20" transform="translate(1049.072266 0)"/>
     <use xlink:href="#DejaVuSans-69" transform="translate(1080.859375 0)"/>
     <use xlink:href="#DejaVuSans-6e" transform="translate(1108.642578 0)"/>
     <use xlink:href="#DejaVuSans-6a" transform="translate(1172.021484 0)"/>
     <use xlink:href="#DejaVuSans-75" transform="translate(1199.804688 0)"/>
     <use xlink:href="#DejaVuSans-72" transform="translate(1263.183594 0)"/>
     <use xlink:href="#DejaVuSans-65" transform="translate(1302.046875 0)"/>
     <use xlink:href="#DejaVuSans-64" transform="translate(1363.570312 0)"/>
     <use xlink:href="#DejaVuSans-20" transform="translate(1427.046875 0)"/>
     <use xlink:href="#DejaVuSans-62" transform="translate(1458.833984 0)"/>
     <use xlink:href="#DejaVuSans-6f" transform="translate(1522.310547 0)"/>
     <use xlink:href="#DejaVuSans-64" transform="translate(1583.492188 0)"/>
     <use xlink:href="#DejaVuSans-79" transform="translate(1646.96875 0)"/>
     <use xlink:href="#DejaVuSans-20" transform="translate(1706.148438 0)"/>
     <use xlink:href="#DejaVuSans-70" transform="translate(1737.935547 0)"/>
     <use xlink:href="#DejaVuSans-61" transform="translate(1801.412109 0)"/>
     <use xlink:href="#DejaVuSans-72" transform="translate(1862.691406 0)"/>
     <use xlink:href="#DejaVuSans-74" transform="translate(1903.804688 0)"/>
     <use xlink:href="#DejaVuSans-20" transform="translate(1943.013672 0)"/>
     <use xlink:href="#DejaVuSans-28" transform="translate(1974.800781 0)"/>
     <use xlink:href="#DejaVuSans-32" transform="translate(2013.814453 0)"/>
     <use xlink:href="#DejaVuSans-30" transform="translate(2077.4375 0)"/>
     <use xlink:href="#DejaVuSans-32" transform="translate(2141.060547 0)"/>
     <use xlink:href="#DejaVuSans-32" transform="translate(2204.683594 0)"/>
     <use xlink:href="#DejaVuSans-29" transform="translate(2268.306641 0)"/>
    </g>
   </g>
   <g id="legend_1">
    <g id="patch_77">
     <path d="M 60.328125 147.743125 
L 195.270312 147.743125 
Q 197.270312 147.743125 197.270312 145.743125 
L 197.270312 29.318125 
Q 197.270312 27.318125 195.270312 27.318125 
L 60.328125 27.318125 
Q 58.328125 27.318125 58.328125 29.318125 
L 58.328125 145.743125 
Q 58.328125 147.743125 60.328125 147.743125 
z
" style="fill: #ffffff; opacity: 0.8; stroke: #cccccc; stroke-linejoin: miter"/>
    </g>
    <g id="text_19">
     <!-- Severity -->
     <g transform="translate(107.148438 38.916563) scale(0.1 -0.1)">
      <defs>
       <path id="DejaVuSans-53" d="M 3425 4513 
L 3425 3897 
Q 3066 4069 2747 4153 
Q 2428 4238 2131 4238 
Q 1616 4238 1336 4038 
Q 1056 3838 1056 3469 
Q 1056 3159 1242 3001 
Q 1428 2844 1947 2747 
L 2328 2669 
Q 3034 2534 3370 2195 
Q 3706 1856 3706 1288 
Q 3706 609 3251 259 
Q 2797 -91 1919 -91 
Q 1588 -91 1214 -16 
Q 841 59 441 206 
L 441 856 
Q 825 641 1194 531 
Q 1563 422 1919 422 
Q 2459 422 2753 634 
Q 3047 847 3047 1241 
Q 3047 1584 2836 1778 
Q 2625 1972 2144 2069 
L 1759 2144 
Q 1053 2284 737 2584 
Q 422 2884 422 3419 
Q 422 4038 858 4394 
Q 1294 4750 2059 4750 
Q 2388 4750 2728 4690 
Q 3069 4631 3425 4513 
z
" transform="scale(0.015625)"/>
       <path id="DejaVuSans-76" d="M 191 3500 
L 800 3500 
L 1894 563 
L 2988 3500 
L 3597 3500 
L 2284 0 
L 1503 0 
L 191 3500 
z
" transform="scale(0.015625)"/>
      </defs>
      <use xlink:href="#DejaVuSans-53"/>
      <use xlink:href="#DejaVuSans-65" transform="translate(63.476562 0)"/>
      <use xlink:href="#DejaVuSans-76" transform="translate(125 0)"/>
      <use xlink:href="#DejaVuSans-65" transform="translate(184.179688 0)"/>
      <use xlink:href="#DejaVuSans-72" transform="translate(245.703125 0)"/>
      <use xlink:href="#DejaVuSans-69" transform="translate(286.816406 0)"/>
      <use xlink:href="#DejaVuSans-74" transform="translate(314.599609 0)"/>
      <use xlink:href="#DejaVuSans-79" transform="translate(353.808594 0)"/>
     </g>
    </g>
    <g id="patch_78">
     <path d="M 62.328125 53.594688 
L 82.328125 53.594688 
L 82.328125 46.594688 
L 62.328125 46.594688 
z
" style="fill: #bc8f8f"/>
    </g>
    <g id="text_20">
     <!-- No follow-up care -->
     <g transform="translate(90.328125 53.594688) scale(0.1 -0.1)">
      <defs>
       <path id="DejaVuSans-2d" d="M 313 2009 
L 1997 2009 
L 1997 1497 
L 313 1497 
L 313 2009 
z
" transform="scale(0.015625)"/>
      </defs>
      <use xlink:href="#DejaVuSans-4e"/>
      <use xlink:href="#DejaVuSans-6f" transform="translate(74.804688 0)"/>
      <use xlink:href="#DejaVuSans-20" transform="translate(135.986328 0)"/>
      <use xlink:href="#DejaVuSans-66" transform="translate(167.773438 0)"/>
      <use xlink:href="#DejaVuSans-6f" transform="translate(202.978516 0)"/>
      <use xlink:href="#DejaVuSans-6c" transform="translate(264.160156 0)"/>
      <use xlink:href="#DejaVuSans-6c" transform="translate(291.943359 0)"/>
      <use xlink:href="#DejaVuSans-6f" transform="translate(319.726562 0)"/>
      <use xlink:href="#DejaVuSans-77" transform="translate(380.908203 0)"/>
      <use xlink:href="#DejaVuSans-2d" transform="translate(462.695312 0)"/>
      <use xlink:href="#DejaVuSans-75" transform="translate(498.779297 0)"/>
      <use xlink:href="#DejaVuSans-70" transform="translate(562.158203 0)"/>
      <use xlink:href="#DejaVuSans-20" transform="translate(625.634766 0)"/>
      <use xlink:href="#DejaVuSans-63" transform="translate(657.421875 0)"/>
      <use xlink:href="#DejaVuSans-61" transform="translate(712.402344 0)"/>
      <use xlink:href="#DejaVuSans-72" transform="translate(773.681641 0)"/>
      <use xlink:href="#DejaVuSans-65" transform="translate(812.544922 0)"/>
     </g>
    </g>
    <g id="patch_79">
     <path d="M 62.328125 68.272813 
L 82.328125 68.272813 
L 82.328125 61.272813 
L 62.328125 61.272813 
z
" style="fill: #f08080"/>
    </g>
    <g id="text_21">
     <!-- Follow-up care -->
     <g transform="translate(90.328125 68.272813) scale(0.1 -0.1)">
      <use xlink:href="#DejaVuSans-46"/>
      <use xlink:href="#DejaVuSans-6f" transform="translate(53.894531 0)"/>
      <use xlink:href="#DejaVuSans-6c" transform="translate(115.076172 0)"/>
      <use xlink:href="#DejaVuSans-6c" transform="translate(142.859375 0)"/>
      <use xlink:href="#DejaVuSans-6f" transform="translate(170.642578 0)"/>
      <use xlink:href="#DejaVuSans-77" transform="translate(231.824219 0)"/>
      <use xlink:href="#DejaVuSans-2d" transform="translate(313.611328 0)"/>
      <use xlink:href="#DejaVuSans-75" transform="translate(349.695312 0)"/>
      <use xlink:href="#DejaVuSans-70" transform="translate(413.074219 0)"/>
      <use xlink:href="#DejaVuSans-20" transform="translate(476.550781 0)"/>
      <use xlink:href="#DejaVuSans-63" transform="translate(508.337891 0)"/>
      <use xlink:href="#DejaVuSans-61" transform="translate(563.318359 0)"/>
      <use xlink:href="#DejaVuSans-72" transform="translate(624.597656 0)"/>
      <use xlink:href="#DejaVuSans-65" transform="translate(663.460938 0)"/>
     </g>
    </g>
    <g id="patch_80">
     <path d="M 62.328125 82.950938 
L 82.328125 82.950938 
L 82.328125 75.950938 
L 62.328125 75.950938 
z
" style="fill: #cd5c5c"/>
    </g>
    <g id="text_22">
     <!-- Short hospitalization -->
     <g transform="translate(90.328125 82.950938) scale(0.1 -0.1)">
      <defs>
       <path id="DejaVuSans-7a" d="M 353 3500 
L 3084 3500 
L 3084 2975 
L 922 459 
L 3084 459 
L 3084 0 
L 275 0 
L 275 525 
L 2438 3041 
L 353 3041 
L 353 3500 
z
" transform="scale(0.015625)"/>
      </defs>
      <use xlink:href="#DejaVuSans-53"/>
      <use xlink:href="#DejaVuSans-68" transform="translate(63.476562 0)"/>
      <use xlink:href="#DejaVuSans-6f" transform="translate(126.855469 0)"/>
      <use xlink:href="#DejaVuSans-72" transform="translate(188.037109 0)"/>
      <use xlink:href="#DejaVuSans-74" transform="translate(229.150391 0)"/>
      <use xlink:href="#DejaVuSans-20" transform="translate(268.359375 0)"/>
      <use xlink:href="#DejaVuSans-68" transform="translate(300.146484 0)"/>
      <use xlink:href="#DejaVuSans-6f" transform="translate(363.525391 0)"/>
      <use xlink:href="#DejaVuSans-73" transform="translate(424.707031 0)"/>
      <use xlink:href="#DejaVuSans-70" transform="translate(476.806641 0)"/>
      <use xlink:href="#DejaVuSans-69" transform="translate(540.283203 0)"/>
      <use xlink:href="#DejaVuSans-74" transform="translate(568.066406 0)"/>
      <use xlink:href="#DejaVuSans-61" transform="translate(607.275391 0)"/>
      <use xlink:href="#DejaVuSans-6c" transform="translate(668.554688 0)"/>
      <use xlink:href="#DejaVuSans-69" transform="translate(696.337891 0)"/>
      <use xlink:href="#DejaVuSans-7a" transform="translate(724.121094 0)"/>
      <use xlink:href="#DejaVuSans-61" transform="translate(776.611328 0)"/>
      <use xlink:href="#DejaVuSans-74" transform="translate(837.890625 0)"/>
      <use xlink:href="#DejaVuSans-69" transform="translate(877.099609 0)"/>
      <use xlink:href="#DejaVuSans-6f" transform="translate(904.882812 0)"/>
      <use xlink:href="#DejaVuSans-6e" transform="translate(966.064453 0)"/>
     </g>
    </g>
    <g id="patch_81">
     <path d="M 62.328125 97.629063 
L 82.328125 97.629063 
L 82.328125 90.629063 
L 62.328125 90.629063 
z
" style="fill: #a52a2a"/>
    </g>
    <g id="text_23">
     <!-- Surgery -->
     <g transform="translate(90.328125 97.629063) scale(0.1 -0.1)">
      <use xlink:href="#DejaVuSans-53"/>
      <use xlink:href="#DejaVuSans-75" transform="translate(63.476562 0)"/>
      <use xlink:href="#DejaVuSans-72" transform="translate(126.855469 0)"/>
      <use xlink:href="#DejaVuSans-67" transform="translate(166.21875 0)"/>
      <use xlink:href="#DejaVuSans-65" transform="translate(229.695312 0)"/>
      <use xlink:href="#DejaVuSans-72" transform="translate(291.21875 0)"/>
      <use xlink:href="#DejaVuSans-79" transform="translate(332.332031 0)"/>
     </g>
    </g>
    <g id="patch_82">
     <path d="M 62.328125 112.307188 
L 82.328125 112.307188 
L 82.328125 105.307188 
L 62.328125 105.307188 
z
" style="fill: #ff4500"/>
    </g>
    <g id="text_24">
     <!-- Longer stay at ICU -->
     <g transform="translate(90.328125 112.307188) scale(0.1 -0.1)">
      <use xlink:href="#DejaVuSans-4c"/>
      <use xlink:href="#DejaVuSans-6f" transform="translate(53.962891 0)"/>
      <use xlink:href="#DejaVuSans-6e" transform="translate(115.144531 0)"/>
      <use xlink:href="#DejaVuSans-67" transform="translate(178.523438 0)"/>
      <use xlink:href="#DejaVuSans-65" transform="translate(242 0)"/>
      <use xlink:href="#DejaVuSans-72" transform="translate(303.523438 0)"/>
      <use xlink:href="#DejaVuSans-20" transform="translate(344.636719 0)"/>
      <use xlink:href="#DejaVuSans-73" transform="translate(376.423828 0)"/>
      <use xlink:href="#DejaVuSans-74" transform="translate(428.523438 0)"/>
      <use xlink:href="#DejaVuSans-61" transform="translate(467.732422 0)"/>
      <use xlink:href="#DejaVuSans-79" transform="translate(529.011719 0)"/>
      <use xlink:href="#DejaVuSans-20" transform="translate(588.191406 0)"/>
      <use xlink:href="#DejaVuSans-61" transform="translate(619.978516 0)"/>
      <use xlink:href="#DejaVuSans-74" transform="translate(681.257812 0)"/>
      <use xlink:href="#DejaVuSans-20" transform="translate(720.466797 0)"/>
      <use xlink:href="#DejaVuSans-49" transform="translate(752.253906 0)"/>
      <use xlink:href="#DejaVuSans-43" transform="translate(781.746094 0)"/>
      <use xlink:href="#DejaVuSans-55" transform="translate(851.570312 0)"/>
     </g>
    </g>
    <g id="patch_83">
     <path d="M 62.328125 126.985313 
L 82.328125 126.985313 
L 82.328125 119.985313 
L 62.328125 119.985313 
z
" style="fill: #800000"/>
    </g>
    <g id="text_25">
     <!-- Polytrauma -->
     <g transform="translate(90.328125 126.985313) scale(0.1 -0.1)">
      <defs>
       <path id="DejaVuSans-50" d="M 1259 4147 
L 1259 2394 
L 2053 2394 
Q 2494 2394 2734 2622 
Q 2975 2850 2975 3272 
Q 2975 3691 2734 3919 
Q 2494 4147 2053 4147 
L 1259 4147 
z
M 628 4666 
L 2053 4666 
Q 2838 4666 3239 4311 
Q 3641 3956 3641 3272 
Q 3641 2581 3239 2228 
Q 2838 1875 2053 1875 
L 1259 1875 
L 1259 0 
L 628 0 
L 628 4666 
z
" transform="scale(0.015625)"/>
      </defs>
      <use xlink:href="#DejaVuSans-50"/>
      <use xlink:href="#DejaVuSans-6f" transform="translate(56.677734 0)"/>
      <use xlink:href="#DejaVuSans-6c" transform="translate(117.859375 0)"/>
      <use xlink:href="#DejaVuSans-79" transform="translate(145.642578 0)"/>
      <use xlink:href="#DejaVuSans-74" transform="translate(204.822266 0)"/>
      <use xlink:href="#DejaVuSans-72" transform="translate(244.03125 0)"/>
      <use xlink:href="#DejaVuSans-61" transform="translate(285.144531 0)"/>
      <use xlink:href="#DejaVuSans-75" transform="translate(346.423828 0)"/>
      <use xlink:href="#DejaVuSans-6d" transform="translate(409.802734 0)"/>
      <use xlink:href="#DejaVuSans-61" transform="translate(507.214844 0)"/>
     </g>
    </g>
    <g id="patch_84">
     <path d="M 62.328125 141.663438 
L 82.328125 141.663438 
L 82.328125 134.663438 
L 62.328125 134.663438 
z
" style="fill: #ff0000"/>
    </g>
    <g id="text_26">
     <!-- Immediate death -->
     <g transform="translate(90.328125 141.663438) scale(0.1 -0.1)">
      <use xlink:href="#DejaVuSans-49"/>
      <use xlink:href="#DejaVuSans-6d" transform="translate(29.492188 0)"/>
      <use xlink:href="#DejaVuSans-6d" transform="translate(126.904297 0)"/>
      <use xlink:href="#DejaVuSans-65" transform="translate(224.316406 0)"/>
      <use xlink:href="#DejaVuSans-64" transform="translate(285.839844 0)"/>
      <use xlink:href="#DejaVuSans-69" transform="translate(349.316406 0)"/>
      <use xlink:href="#DejaVuSans-61" transform="translate(377.099609 0)"/>
      <use xlink:href="#DejaVuSans-74" transform="translate(438.378906 0)"/>
      <use xlink:href="#DejaVuSans-65" transform="translate(477.587891 0)"/>
      <use xlink:href="#DejaVuSans-20" transform="translate(539.111328 0)"/>
      <use xlink:href="#DejaVuSans-64" transform="translate(570.898438 0)"/>
      <use xlink:href="#DejaVuSans-65" transform="translate(634.375 0)"/>
      <use xlink:href="#DejaVuSans-61" transform="translate(695.898438 0)"/>
      <use xlink:href="#DejaVuSans-74" transform="translate(757.177734 0)"/>
      <use xlink:href="#DejaVuSans-68" transform="translate(796.386719 0)"/>
     </g>
    </g>
   </g>
  </g>
 </g>
 <defs>
  <clipPath id="pcbcd9a0ac7">
   <rect x="53.328125" y="22.318125" width="796.03" height="322.116572"/>
  </clipPath>
 </defs>
</svg>
